#!OML:ASF X:\für Bonn\!DataBase\2005_08_12_Daniel\c3d\Daniel.ASF
:FULLY-SPECIFIED
:DEGREES
146
root -3.08931 15.4487 -2.74908 320.618 -80.7064 -334.506
lowerback 30.3046 -3.26666 0.273641
upperback 4.60338 -4.97959 -3.19312
thorax -11.8061 -2.55367 -1.81977
lowerneck 3.80302 11.5387 4.00736
upperneck 3.20954 15.5637 -5.21776
head 1.14925 7.79019 -2.22988
rclavicle -6.4605e-016 -1.59028e-015
rhumerus 61.5702 -5.67919 -109.833
rradius 9.41876
rwrist 79.2569
rhand -17.6302 11.4521
rfingers 7.12502
rthumb 8.62724 -18.3517
lclavicle -6.4605e-016 -1.59028e-015
lhumerus 62.6257 -4.84455 84.8686
lradius 10.8032
lwrist -56.4872
lhand -14.6287 5.20152
lfingers 7.12502
lthumb 11.5229 34.8648
rfemur -16.7042 -17.5971 2.94477
rtibia 69.3717
rfoot -23.3594 9.70417
rtoes -11.2356
lfemur -22.9205 4.44748 -17.043
ltibia 65.4496
lfoot -23.5371 -20.6324
ltoes 3.61198
147
root -3.10977 15.5831 -2.75868 320.517 -80.6459 -334.053
lowerback 29.7085 -3.20805 0.153376
upperback 4.34217 -4.92371 -3.22017
thorax -11.8004 -2.51699 -1.82461
lowerneck 3.85447 11.7375 4.13325
upperneck 3.50352 15.84 -5.19634
head 1.25845 7.92653 -2.22931
rclavicle -1.02871e-014 -3.81667e-014
rhumerus 60.959 -5.82414 -109.652
rradius 9.55014
rwrist 79.0419
rhand -17.653 11.4061
rfingers 7.12502
rthumb 8.60524 -18.3985
lclavicle -1.02871e-014 -3.81667e-014
lhumerus 62.2988 -4.97653 84.9721
lradius 10.6685
lwrist -56.1164
lhand -14.9184 5.18292
lfingers 7.12502
lthumb 11.2434 34.8616
rfemur -15.5817 -16.9295 3.39616
rtibia 66.9424
rfoot -23.7421 8.96201
rtoes -11.4635
lfemur -21.9832 4.05263 -17.3081
ltibia 63.4241
lfoot -23.465 -19.8659
ltoes 3.32231
148
root -3.1314 15.7161 -2.76854 320.459 -80.5813 -333.667
lowerback 29.0946 -3.15499 0.03787
upperback 4.11027 -4.87455 -3.25554
thorax -11.7498 -2.48509 -1.83985
lowerneck 3.89765 11.9098 4.27551
upperneck 3.77401 16.0812 -5.18401
head 1.36263 8.04582 -2.23469
rclavicle 2.68856e-014 3.49861e-014
rhumerus 60.3789 -5.97035 -109.485
rradius 9.65536
rwrist 78.8563
rhand -17.8253 11.3997
rfingers 7.12502
rthumb 8.43893 -18.4117
lclavicle 2.68856e-014 3.49861e-014
lhumerus 62.0098 -5.12958 85.0093
lradius 10.5275
lwrist -55.6642
lhand -15.2309 5.12432
lfingers 7.12502
lthumb 10.9421 34.8192
rfemur -14.425 -16.2619 3.83859
rtibia 64.505
rfoot -24.1195 8.12534
rtoes -11.7766
lfemur -21.0255 3.62376 -17.5676
ltibia 61.4125
lfoot -23.4179 -19.0425
ltoes 3.04881
149
root -3.15448 15.8455 -2.77912 320.363 -80.5314 -333.215
lowerback 28.4132 -3.09409 -0.0861727
upperback 3.88964 -4.81666 -3.29764
thorax -11.6477 -2.44986 -1.86365
lowerneck 4.01323 12.0499 4.4434
upperneck 3.96058 16.2809 -5.21195
head 1.43212 8.14657 -2.26523
rclavicle -6.60959e-015 -1.90833e-014
rhumerus 59.8879 -6.09055 -109.348
rradius 9.72882
rwrist 78.702
rhand -17.9699 11.4344
rfingers 7.12502
rthumb 8.29935 -18.3825
lclavicle -6.60959e-015 -1.90833e-014
lhumerus 61.7628 -5.32289 84.9567
lradius 10.3679
lwrist -55.0985
lhand -15.5226 5.01048
lfingers 7.12502
lthumb 10.6607 34.72
rfemur -13.313 -15.5441 4.29057
rtibia 62.0709
rfoot -24.5086 7.26377
rtoes -12.0847
lfemur -20.1039 3.17955 -17.8199
ltibia 59.4188
lfoot -23.336 -18.1906
ltoes 2.64414
150
root -3.17819 15.9695 -2.79009 320.171 -80.4451 -332.657
lowerback 27.7196 -3.02977 -0.236725
upperback 3.66659 -4.76219 -3.34982
thorax -11.5376 -2.41559 -1.88212
lowerneck 4.08033 12.16 4.53783
upperneck 4.16555 16.435 -5.15466
head 1.49881 8.22326 -2.25504
rclavicle 2.94698e-014 2.54444e-014
rhumerus 59.5373 -6.20194 -109.219
rradius 9.63003
rwrist 78.5848
rhand -18.1944 11.4078
rfingers 7.12502
rthumb 8.08272 -18.4176
lclavicle 2.94698e-014 2.54444e-014
lhumerus 61.516 -5.61837 84.7349
lradius 10.2357
lwrist -54.3672
lhand -15.8177 4.91971
lfingers 7.12502
lthumb 10.376 34.6437
rfemur -12.2104 -14.8171 4.7055
rtibia 59.6427
rfoot -24.9472 6.32932
rtoes -12.3996
lfemur -19.2103 2.6522 -18.1145
ltibia 57.4465
lfoot -23.2237 -17.3228
ltoes 2.21302
151
root -3.20347 16.0883 -2.80121 319.923 -80.377 -332.047
lowerback 27.0187 -2.96205 -0.397453
upperback 3.43748 -4.70497 -3.40466
thorax -11.4266 -2.37984 -1.89823
lowerneck 4.22111 12.2469 4.67719
upperneck 4.32741 16.5614 -5.13674
head 1.5458 8.28804 -2.27134
rclavicle -6.95746e-015 -1.74931e-014
rhumerus 59.2639 -6.27758 -109.119
rradius 9.42009
rwrist 78.5631
rhand -18.4578 11.3558
rfingers 7.12502
rthumb 7.82848 -18.4792
lclavicle -6.95746e-015 -1.74931e-014
lhumerus 61.2467 -5.86683 84.5992
lradius 10.1154
lwrist -53.7375
lhand -16.032 4.80047
lfingers 7.12502
lthumb 10.1693 34.5347
rfemur -11.1157 -14.0364 5.11749
rtibia 57.2238
rfoot -25.4001 5.41617
rtoes -12.605
lfemur -18.3319 2.10773 -18.4042
ltibia 55.5109
lfoot -23.0965 -16.4115
ltoes 1.8521
